<svg width="23" height="13" viewBox="0 0 23 13" fill="none" xmlns="http://www.w3.org/2000/svg">
<path fill-rule="evenodd" clip-rule="evenodd" d="M15.7076 0.902217C16.2066 0.433636 17.0157 0.433636 17.5146 0.902217L22.625 5.70102L22.6257 5.70172C22.7483 5.81676 22.8407 5.94935 22.903 6.09087C22.9655 6.23234 23 6.38747 23 6.55016C23 6.7122 22.9658 6.86675 22.9038 7.00777C22.873 7.07783 22.8349 7.14571 22.7894 7.21037C22.7427 7.2769 22.6881 7.34003 22.6257 7.39861L22.625 7.3993L17.5146 12.1981C17.0157 12.6666 16.2066 12.6666 15.7076 12.1981C15.2086 11.7295 15.2086 10.9698 15.7076 10.5012L18.6374 7.75004H1.27778C0.57208 7.75004 0 7.21283 0 6.55016C0 5.88749 0.57208 5.35029 1.27778 5.35029H18.6374L15.7076 2.5991C15.2086 2.13051 15.2086 1.3708 15.7076 0.902217Z" fill="#FCFCFC"/>
</svg>
