<svg width="24" height="11" viewBox="0 0 24 11" fill="none" xmlns="http://www.w3.org/2000/svg">
<path fill-rule="evenodd" clip-rule="evenodd" d="M16.002 0.645645C16.4934 0.255163 17.2902 0.255163 17.7815 0.645645L22.8141 4.64464L22.8149 4.64522C22.9356 4.74109 23.0265 4.85158 23.0879 4.96952C23.1495 5.0874 23.1834 5.21668 23.1834 5.35225C23.1834 5.48729 23.1497 5.61608 23.0887 5.73359C23.0584 5.79198 23.0209 5.84854 22.9761 5.90243C22.93 5.95787 22.8763 6.01048 22.8149 6.05929L22.8141 6.05987L17.7815 10.0589C17.2902 10.4493 16.4934 10.4493 16.002 10.0589C15.5106 9.66838 15.5106 9.03529 16.002 8.6448C16.9553 7.88727 16.4197 6.35215 15.202 6.35215H1.79178C1.09682 6.35215 0.533447 5.90448 0.533447 5.35225C0.533447 4.80003 1.09682 4.35236 1.79178 4.35236H15.202C16.4197 4.35236 16.9553 2.81724 16.002 2.05971C15.5106 1.66922 15.5106 1.03613 16.002 0.645645Z" fill="#648A9F"/>
</svg>
