<svg width="12" height="14" viewBox="0 0 12 14" fill="none" xmlns="http://www.w3.org/2000/svg">
<path d="M0.294965 1.28122C-0.0983216 1.70642 -0.0983216 2.39329 0.294965 2.8185L4.20766 7.04874L0.294965 11.279C-0.0983216 11.7042 -0.0983216 12.3911 0.294965 12.8163C0.688251 13.2415 1.32356 13.2415 1.71685 12.8163L6.34553 7.81193C6.73881 7.38673 6.73881 6.69986 6.34553 6.27465L1.71685 1.27031C1.33364 0.856012 0.688251 0.856012 0.294965 1.28122Z" fill="#648A9F"/>
<path d="M11.3256 1.28122C11.7189 1.70642 11.7189 2.39329 11.3256 2.8185L7.41294 7.04874L11.3256 11.279C11.7189 11.7042 11.7189 12.3911 11.3256 12.8163C10.9324 13.2415 10.297 13.2415 9.90376 12.8163L5.27508 7.81193C4.88179 7.38673 4.88179 6.69986 5.27508 6.27465L9.90376 1.27031C10.287 0.856012 10.9324 0.856012 11.3256 1.28122Z" fill="#648A9F"/>
</svg>
