<svg width="10" height="18" viewBox="0 0 10 18" fill="none" xmlns="http://www.w3.org/2000/svg">
<path d="M9.6746 11.4526C10.0581 11.0547 10.1129 10.4862 9.78416 9.91767C9.51024 9.46287 9.01719 9.23547 8.46934 9.34917C8.2502 9.40602 8.03106 9.51972 7.81192 9.69027C6.1136 10.8841 3.81266 10.8273 2.11434 9.63342C2.00477 9.57657 1.8952 9.51972 1.78563 9.46287C1.183 9.17861 0.580376 9.29232 0.251669 9.86082C-0.131822 10.4293 -0.0770446 11.0547 0.416016 11.5663C0.525585 11.68 0.635154 11.7369 0.689938 11.8506L0.744726 11.9074C1.51171 12.5328 2.44305 12.9307 3.6483 13.1013L2.93611 13.8403C2.33348 14.4657 1.67607 15.1479 1.07344 15.7732C0.909083 15.9438 0.689938 16.228 0.689938 16.626C0.689938 17.1376 0.963865 17.6493 1.45693 17.8767C1.62128 17.9904 1.78563 17.9904 1.94998 17.9904C2.22391 17.9904 2.55261 17.8767 2.77175 17.5924C3.59352 16.7397 4.25094 16.0575 4.90835 15.3753C4.96313 15.3184 4.96313 15.3184 4.96313 15.3184C4.96313 15.3184 5.01792 15.3184 5.01792 15.3753C5.45619 15.8869 5.94925 16.3417 6.38753 16.8534C6.60667 17.0808 6.8258 17.3082 7.04494 17.5356C7.31886 17.8198 7.538 17.9335 7.86671 17.9335C8.35977 17.9904 8.90761 17.6493 9.12675 17.1376C9.34589 16.6828 9.23632 16.1143 8.85283 15.7732C8.30499 15.2047 7.75714 14.5794 7.15451 14.0109L6.22317 13.0444C6.71623 12.9876 7.26408 12.8739 7.75714 12.6465C8.57891 12.3622 9.18154 11.9643 9.6746 11.4526Z" fill="#FCFCFC"/>
<path d="M4.96313 9.86082C7.31886 9.86082 9.23632 7.9279 9.23632 5.48335C9.23632 4.28949 8.79804 3.1525 7.97627 2.29974C7.15451 1.44699 6.11361 0.992188 5.01792 0.992188C2.66218 0.992188 0.79951 2.98194 0.744725 5.36965C0.744725 6.5635 1.183 7.64365 2.00477 8.49641C2.77175 9.40601 3.81265 9.86082 4.96313 9.86082ZM3.75787 4.1758C4.08658 3.8347 4.52485 3.66414 4.96313 3.66414C5.94925 3.66414 6.66145 4.46005 6.66145 5.4265C6.66145 6.4498 5.89446 7.18885 4.96313 7.18885C3.97701 7.18885 3.26481 6.39295 3.26481 5.4265C3.26481 4.9717 3.42916 4.5169 3.75787 4.1758Z" fill="#FCFCFC"/>
<path d="M9.6746 11.4526C10.0581 11.0547 10.1129 10.4862 9.78416 9.91767C9.51024 9.46287 9.01719 9.23547 8.46934 9.34917C8.2502 9.40602 8.03106 9.51972 7.81192 9.69027C6.1136 10.8841 3.81266 10.8273 2.11434 9.63342C2.00477 9.57657 1.8952 9.51972 1.78563 9.46287C1.183 9.17861 0.580376 9.29232 0.251669 9.86082C-0.131822 10.4293 -0.0770446 11.0547 0.416016 11.5663C0.525585 11.68 0.635154 11.7369 0.689938 11.8506L0.744726 11.9074C1.51171 12.5328 2.44305 12.9307 3.6483 13.1013L2.93611 13.8403C2.33348 14.4657 1.67607 15.1479 1.07344 15.7732C0.909083 15.9438 0.689938 16.228 0.689938 16.626C0.689938 17.1376 0.963865 17.6493 1.45693 17.8767C1.62128 17.9904 1.78563 17.9904 1.94998 17.9904C2.22391 17.9904 2.55261 17.8767 2.77175 17.5924C3.59352 16.7397 4.25094 16.0575 4.90835 15.3753C4.96313 15.3184 4.96313 15.3184 4.96313 15.3184C4.96313 15.3184 5.01792 15.3184 5.01792 15.3753C5.45619 15.8869 5.94925 16.3417 6.38753 16.8534C6.60667 17.0808 6.8258 17.3082 7.04494 17.5356C7.31886 17.8198 7.538 17.9335 7.86671 17.9335C8.35977 17.9904 8.90761 17.6493 9.12675 17.1376C9.34589 16.6828 9.23632 16.1143 8.85283 15.7732C8.30499 15.2047 7.75714 14.5794 7.15451 14.0109L6.22317 13.0444C6.71623 12.9876 7.26408 12.8739 7.75714 12.6465C8.57891 12.3622 9.18154 11.9643 9.6746 11.4526Z" fill="#FCFCFC"/>
</svg>
