<svg width="22" height="15" viewBox="0 0 22 15" fill="none" xmlns="http://www.w3.org/2000/svg">
<path d="M11.9825 14.9907C4.46596 14.9907 0.178638 9.73601 0 0.992188H3.76515C3.88882 7.40993 6.66459 10.1284 8.86321 10.6889V0.992188H12.4085V6.52714C14.5796 6.28892 16.8607 3.76667 17.6302 0.992188H21.1755C20.8855 2.43111 20.3075 3.79354 19.4776 4.99427C18.6477 6.19499 17.5837 7.20816 16.3523 7.97043C17.7269 8.66693 18.941 9.65277 19.9145 10.8629C20.888 12.073 21.5988 13.4799 22 14.9907H18.0974C17.7373 13.6785 17.0054 12.5038 15.9934 11.6139C14.9814 10.724 13.7343 10.1585 12.4085 9.98823V14.9907H11.9825Z" fill="#FCFCFC"/>
</svg>
