<svg width="22" height="16" viewBox="0 0 22 16" fill="none" xmlns="http://www.w3.org/2000/svg">
<path fill-rule="evenodd" clip-rule="evenodd" d="M2.26249 15.5475C1.87023 15.4314 1.51232 15.225 1.21896 14.9456C0.925599 14.6662 0.705403 14.322 0.576947 13.942C-0.157079 11.9784 -0.374569 3.77882 1.03911 2.16014C1.50961 1.63357 2.17389 1.30937 2.88777 1.25792C6.68024 0.859881 18.3975 0.912953 19.7432 1.3906C20.1217 1.51046 20.4675 1.71237 20.7547 1.9812C21.0419 2.25004 21.263 2.57883 21.4015 2.94294C22.2035 4.97294 22.2307 12.3499 21.2928 14.3003C21.044 14.808 20.6275 15.2192 20.1102 15.4679C18.6965 16.1578 4.13833 16.1445 2.26249 15.5475ZM8.28422 11.6998L15.0808 8.25011L8.28422 4.77392V11.6998Z" fill="#FCFCFC"/>
</svg>
