<svg width="145" height="30" viewBox="0 0 145 30" fill="none" xmlns="http://www.w3.org/2000/svg">
<path d="M14.761 29.5377C22.9133 29.5377 29.522 22.9254 29.522 14.7688C29.522 6.61223 22.9133 0 14.761 0C6.60873 0 0 6.61223 0 14.7688C0 22.9254 6.60873 29.5377 14.761 29.5377Z" fill="#C50626"/>
<path d="M67.531 16.6254C67.531 15.6927 66.4286 15.5386 65.0911 15.4656C62.1973 15.2548 60.2924 14.2653 60.2599 11.37C60.1465 5.73331 70.0925 5.61977 70.4167 11.0374C70.4249 11.2159 70.2708 11.37 70.0925 11.37H67.4743C67.3284 11.37 67.1987 11.2726 67.1662 11.1348C66.8582 9.61814 63.6077 9.829 63.4942 11.3375C63.4213 12.3432 64.4102 12.5541 65.6099 12.6919C68.2524 12.9758 70.8464 13.3245 70.8464 16.6579C70.8464 22.1485 60.414 22.3999 60.0816 16.8768C60.0735 16.6984 60.2275 16.5443 60.4058 16.5443H63.0889C63.2267 16.5443 63.3645 16.6335 63.3889 16.7633C63.7374 18.2313 67.531 18.1258 67.531 16.6335V16.6254Z" fill="#FCFCFC"/>
<path d="M57.5607 10.323H53.2726C53.0943 10.323 52.9484 10.469 52.9484 10.6474V11.8883C52.9484 12.0667 53.0943 12.2127 53.2726 12.2127H57.1635C57.3418 12.2127 57.4877 12.3587 57.4877 12.5371V14.9215C57.4877 15.0999 57.3418 15.2459 57.1635 15.2459H53.2726C53.0943 15.2459 52.9484 15.3919 52.9484 15.5703V17.2735C52.9484 17.4519 53.0943 17.5979 53.2726 17.5979H57.7309C57.9092 17.5979 58.0551 17.7439 58.0551 17.9223V20.3067C58.0551 20.4852 57.9092 20.6312 57.7309 20.6312H49.8843C49.706 20.6312 49.5601 20.4852 49.5601 20.3067V7.62226C49.5601 7.44384 49.706 7.29785 49.8843 7.29785H57.5607C57.739 7.29785 57.8849 7.44384 57.8849 7.62226V10.0229C57.8849 10.2013 57.739 10.3473 57.5607 10.3473V10.323Z" fill="#FCFCFC"/>
<path d="M47.2335 20.6067H43.8776C43.7642 20.6067 43.6588 20.5419 43.602 20.4445L41.5026 16.8436C41.4458 16.7462 41.3405 16.6814 41.227 16.6814H39.9624C39.7841 16.6814 39.6382 16.8274 39.6382 17.0058V20.2823C39.6382 20.4608 39.4923 20.6067 39.314 20.6067H36.5498C36.3715 20.6067 36.2256 20.4608 36.2256 20.2823V7.59785C36.2256 7.41942 36.3715 7.27344 36.5498 7.27344H42.07C47.3065 7.28966 48.2549 13.5995 44.8909 15.8784L47.501 20.112C47.6307 20.3229 47.4767 20.5986 47.2254 20.5986L47.2335 20.6067ZM42.0781 10.3229C41.381 10.3067 40.6596 10.3229 39.9624 10.3229C39.7841 10.3229 39.6463 10.4689 39.6463 10.6473V13.2994C39.6463 13.4778 39.7922 13.6238 39.9706 13.6238H42.0862C43.9344 13.6238 44.0236 10.3472 42.0862 10.331L42.0781 10.3229Z" fill="#FCFCFC"/>
<path d="M72.0298 9.99849V7.59785C72.0298 7.41942 72.1757 7.27344 72.354 7.27344H81.6111C81.7894 7.27344 81.9353 7.41942 81.9353 7.59785V9.99849C81.9353 10.1769 81.7894 10.3229 81.6111 10.3229H78.6767V20.2823C78.6767 20.4608 78.5308 20.6067 78.3525 20.6067H75.6288C75.4505 20.6067 75.3046 20.4608 75.3046 20.2823V10.3229H72.354C72.1757 10.3229 72.0298 10.1769 72.0298 9.99849V9.99849Z" fill="#FCFCFC"/>
<path d="M83.2241 13.9571C83.2241 4.73567 96.8908 4.73567 96.8908 13.9571C96.8908 23.1785 83.2241 23.1947 83.2241 13.9571ZM93.4052 13.9571C93.4052 9.15577 86.7259 9.15577 86.7259 13.9571C86.7259 18.7583 93.4052 18.7908 93.4052 13.9571Z" fill="#FCFCFC"/>
<path d="M102.93 16.6091V20.2911C102.93 20.4695 102.784 20.6155 102.606 20.6155H99.7847C99.6064 20.6155 99.4604 20.4695 99.4604 20.2911V7.60664C99.4604 7.42821 99.6064 7.28223 99.7847 7.28223H107.445C107.623 7.28223 107.769 7.42821 107.769 7.60664V10.0073C107.769 10.1857 107.623 10.3317 107.445 10.3317H103.254C103.076 10.3317 102.93 10.4777 102.93 10.6561V12.927C102.93 13.1054 103.076 13.2514 103.254 13.2514H106.894C107.072 13.2514 107.218 13.3974 107.218 13.5758V15.9765C107.218 16.1549 107.072 16.3009 106.894 16.3009H103.254C103.076 16.3009 102.93 16.4468 102.93 16.6253V16.6091Z" fill="#FCFCFC"/>
<path d="M114.124 17.5417H118.315C118.493 17.5417 118.639 17.6877 118.639 17.8661V20.2911C118.639 20.4695 118.493 20.6155 118.315 20.6155H110.695C110.517 20.6155 110.371 20.4695 110.371 20.2911V7.60664C110.371 7.42821 110.517 7.28223 110.695 7.28223H113.476C113.654 7.28223 113.8 7.42821 113.8 7.60664V17.2254C113.8 17.4039 113.946 17.5498 114.124 17.5498V17.5417Z" fill="#FCFCFC"/>
<path d="M120.163 13.9571C120.163 4.73567 133.83 4.73567 133.83 13.9571C133.83 23.1785 120.163 23.1947 120.163 13.9571ZM130.344 13.9571C130.344 9.15577 123.665 9.15577 123.665 13.9571C123.665 18.7583 130.344 18.7908 130.344 13.9571Z" fill="#FCFCFC"/>
<path d="M135.094 9.99849V7.59785C135.094 7.41942 135.24 7.27344 135.418 7.27344H144.676C144.854 7.27344 145 7.41942 145 7.59785V9.99849C145 10.1769 144.854 10.3229 144.676 10.3229H141.741V20.2823C141.741 20.4608 141.595 20.6067 141.417 20.6067H138.693C138.515 20.6067 138.369 20.4608 138.369 20.2823V10.3229H135.418C135.24 10.3229 135.094 10.1769 135.094 9.99849V9.99849Z" fill="#FCFCFC"/>
<path fill-rule="evenodd" clip-rule="evenodd" d="M12.9046 9.03519C12.9046 9.70834 13.1802 10.122 13.7395 10.4545C13.7963 10.495 13.7881 10.4788 13.7963 10.5924C13.8449 11.3385 13.5693 12.109 12.9451 12.401C12.7182 12.5064 12.4426 12.5388 12.2399 12.3523C12.2723 12.2631 12.321 12.2144 12.3696 12.1252C12.5236 11.8576 12.6047 11.598 12.6047 11.2655C12.6047 10.9411 12.5723 10.7059 12.4669 10.4545C12.2642 9.98409 11.9724 9.69212 11.4779 9.5137C11.1537 9.40015 10.9592 9.36771 10.5701 9.36771C10.0756 9.36771 9.72705 9.41638 9.72705 9.95165C9.72705 11.3223 9.75947 13.0173 9.72705 14.3961C9.28932 14.4285 7.79782 14.3961 7.25472 14.3961C6.19283 14.3961 6.36306 14.3474 6.36306 16.4642C6.36306 16.6751 6.4198 16.8048 6.53329 16.9103C10.3512 16.3344 12.2723 17.1293 15.8957 18.1511C18.3032 18.8 21.5294 19.5218 23.7504 18.0376C24.5448 17.5023 25.7364 15.9857 26.4092 15.2314C26.5875 15.0287 27.1144 14.5745 26.6037 14.4123C26.3849 14.3393 20.9782 14.4448 20.1514 14.388C20.1189 12.9606 20.1514 11.3791 20.1514 9.9111C20.1514 9.37582 19.7623 9.35149 19.2597 9.35149C18.0357 9.35149 17.2332 10.0571 17.2737 11.3466C17.2899 11.8981 17.5493 12.1252 17.6385 12.3361C17.6142 12.3604 17.6385 12.3523 17.5818 12.3847C17.0305 12.7497 15.9525 11.9468 16.0984 10.4545C16.609 10.2598 16.9738 9.6759 16.9819 9.1244C17.0143 7.86731 15.9849 7.33203 14.8095 7.33203C13.8044 7.33203 12.8965 8.02141 12.8965 9.02708" fill="#FCFCFC"/>
<path fill-rule="evenodd" clip-rule="evenodd" d="M3.02347 19.4662C3.02347 19.5878 3.18559 19.6365 3.29908 19.5554C3.58279 19.3526 4.65278 18.8659 4.99323 18.7767C5.34179 18.6875 5.6255 18.6064 6.00648 18.5577C7.08458 18.4279 7.59525 18.4604 8.64093 18.5983L9.34615 18.7118C9.57312 18.7524 9.8163 18.7929 10.0352 18.8497C12.0211 19.3607 13.9098 19.8555 15.912 20.2854C17.2414 20.4801 18.6113 20.6017 19.9407 20.3503C20.3298 20.2935 22.3319 19.8961 22.3319 19.4256C22.2995 19.2715 21.9996 19.4256 21.7888 19.4499C21.6105 19.4662 21.4079 19.5229 21.2214 19.5473C19.7218 19.6852 18.3357 19.6203 16.9009 19.2309C15.9363 18.9633 15.3203 18.8092 14.3638 18.4766C13.7963 18.2819 12.3859 17.8358 11.8347 17.7223L11.17 17.5682C8.73009 17.049 6.35504 17.414 4.13399 18.5983C3.93134 18.7118 3.71248 18.8254 3.51794 18.9714C3.37203 19.0768 3.00726 19.2472 3.02347 19.4743" fill="#FCFCFC"/>
<path fill-rule="evenodd" clip-rule="evenodd" d="M14.0314 20.5775C13.9342 20.5126 13.8369 20.5045 13.6829 20.4801C10.3513 19.5798 7.23862 18.4686 3.826 19.9773C3.63146 20.0665 3.43691 20.1557 3.24237 20.2611C3.1451 20.3098 2.73169 20.4883 2.69116 20.5856L13.8045 20.6018L14.0233 20.5775H14.0314Z" fill="#FCFCFC"/>
</svg>
