<svg width="262" height="58" viewBox="0 0 262 58" fill="none" xmlns="http://www.w3.org/2000/svg">
<g filter="url(#filter0_d_102_331)">
<path d="M46.552 49.1885V37.7645H55.128V49.1885H53.704V39.0285H47.992V49.1885H46.552ZM62.1431 40.4525C63.1991 40.4525 64.0471 40.8205 64.6871 41.5565C65.3378 42.2925 65.6631 43.4018 65.6631 44.8845C65.6631 45.8551 65.5138 46.6765 65.2151 47.3485C64.9271 48.0098 64.5165 48.5111 63.9831 48.8525C63.4605 49.1831 62.8418 49.3485 62.1271 49.3485C61.6898 49.3485 61.3005 49.2898 60.9591 49.1725C60.6178 49.0551 60.3245 48.9058 60.0791 48.7245C59.8445 48.5325 59.6418 48.3245 59.4711 48.1005H59.3751C59.3965 48.2818 59.4178 48.5111 59.4391 48.7885C59.4605 49.0658 59.4711 49.3058 59.4711 49.5085V53.0285H58.0631V40.6125H59.2151L59.4071 41.7805H59.4711C59.6418 41.5351 59.8445 41.3111 60.0791 41.1085C60.3245 40.9058 60.6125 40.7458 60.9431 40.6285C61.2845 40.5111 61.6845 40.4525 62.1431 40.4525ZM61.8871 41.6365C61.3111 41.6365 60.8471 41.7485 60.4951 41.9725C60.1431 42.1858 59.8871 42.5111 59.7271 42.9485C59.5671 43.3858 59.4818 43.9405 59.4711 44.6125V44.8845C59.4711 45.5885 59.5458 46.1858 59.6951 46.6765C59.8445 47.1671 60.0951 47.5405 60.4471 47.7965C60.8098 48.0525 61.3005 48.1805 61.9191 48.1805C62.4418 48.1805 62.8685 48.0365 63.1991 47.7485C63.5405 47.4605 63.7911 47.0711 63.9511 46.5805C64.1218 46.0791 64.2071 45.5085 64.2071 44.8685C64.2071 43.8871 64.0151 43.1031 63.6311 42.5165C63.2578 41.9298 62.6765 41.6365 61.8871 41.6365ZM71.1549 40.4685C72.2002 40.4685 72.9735 40.6978 73.4749 41.1565C73.9762 41.6151 74.2269 42.3458 74.2269 43.3485V49.1885H73.2029L72.9309 47.9725H72.8669C72.6215 48.2818 72.3655 48.5431 72.0989 48.7565C71.8429 48.9591 71.5442 49.1085 71.2029 49.2045C70.8722 49.3005 70.4669 49.3485 69.9869 49.3485C69.4749 49.3485 69.0109 49.2578 68.5949 49.0765C68.1895 48.8951 67.8695 48.6178 67.6349 48.2445C67.4002 47.8605 67.2829 47.3805 67.2829 46.8045C67.2829 45.9511 67.6189 45.2951 68.2909 44.8365C68.9629 44.3671 69.9975 44.1111 71.3949 44.0685L72.8509 44.0205V43.5085C72.8509 42.7938 72.6962 42.2978 72.3869 42.0205C72.0775 41.7431 71.6402 41.6045 71.0749 41.6045C70.6269 41.6045 70.2002 41.6738 69.7949 41.8125C69.3895 41.9405 69.0109 42.0898 68.6589 42.2605L68.2269 41.2045C68.6002 41.0018 69.0429 40.8311 69.5549 40.6925C70.0669 40.5431 70.6002 40.4685 71.1549 40.4685ZM71.5709 45.0445C70.5042 45.0871 69.7629 45.2578 69.3469 45.5565C68.9415 45.8551 68.7389 46.2765 68.7389 46.8205C68.7389 47.3005 68.8829 47.6525 69.1709 47.8765C69.4695 48.1005 69.8482 48.2125 70.3069 48.2125C71.0322 48.2125 71.6349 48.0151 72.1149 47.6205C72.5949 47.2151 72.8349 46.5965 72.8349 45.7645V44.9965L71.5709 45.0445ZM79.1316 40.4525C79.7823 40.4525 80.3476 40.5431 80.8276 40.7245C81.3076 40.8951 81.681 41.1511 81.9476 41.4925C82.2143 41.8231 82.3476 42.2285 82.3476 42.7085C82.3476 43.2311 82.2036 43.6471 81.9156 43.9565C81.6276 44.2551 81.233 44.4738 80.7316 44.6125V44.6765C81.073 44.7725 81.3876 44.9058 81.6756 45.0765C81.9636 45.2471 82.193 45.4711 82.3636 45.7485C82.545 46.0258 82.6356 46.3831 82.6356 46.8205C82.6356 47.2898 82.5023 47.7165 82.2356 48.1005C81.9796 48.4845 81.5796 48.7885 81.0356 49.0125C80.5023 49.2365 79.8143 49.3485 78.9716 49.3485C78.5663 49.3485 78.177 49.3271 77.8036 49.2845C77.441 49.2418 77.1103 49.1778 76.8116 49.0925C76.5236 49.0071 76.2676 48.9058 76.0436 48.7885V47.5245C76.4063 47.6951 76.833 47.8498 77.3236 47.9885C77.825 48.1271 78.369 48.1965 78.9556 48.1965C79.3823 48.1965 79.7663 48.1485 80.1076 48.0525C80.4596 47.9565 80.737 47.8071 80.9396 47.6045C81.1423 47.3911 81.2436 47.1031 81.2436 46.7405C81.2436 46.4098 81.153 46.1431 80.9716 45.9405C80.7903 45.7271 80.5183 45.5671 80.1556 45.4605C79.8036 45.3538 79.3503 45.3005 78.7956 45.3005H77.6436V44.1485H78.5716C79.3076 44.1485 79.8943 44.0525 80.3316 43.8605C80.7796 43.6578 81.0036 43.3165 81.0036 42.8365C81.0036 42.4311 80.833 42.1271 80.4916 41.9245C80.161 41.7218 79.681 41.6205 79.0516 41.6205C78.5823 41.6205 78.1663 41.6685 77.8036 41.7645C77.4516 41.8498 77.0623 41.9831 76.6356 42.1645L76.1396 41.0445C76.5983 40.8418 77.0783 40.6925 77.5796 40.5965C78.081 40.5005 78.5983 40.4525 79.1316 40.4525ZM91.0874 40.6125V48.0045H92.3354V52.1645H90.9754V49.1885H85.0074V52.1645H83.6634V48.0045H84.3514C84.842 47.3218 85.2474 46.5805 85.5674 45.7805C85.898 44.9698 86.1434 44.1271 86.3034 43.2525C86.474 42.3671 86.5647 41.4871 86.5754 40.6125H91.0874ZM87.8234 41.7165C87.7807 42.4418 87.6687 43.1938 87.4874 43.9725C87.306 44.7405 87.0714 45.4765 86.7834 46.1805C86.506 46.8845 86.1807 47.4925 85.8074 48.0045H89.7274V41.7165H87.8234ZM95.4243 40.6125V44.1805H100.08V40.6125H101.488V49.1885H100.08V45.3645H95.4243V49.1885H94.0163V40.6125H95.4243ZM105.532 45.8445C105.532 45.9405 105.526 46.0791 105.516 46.2605C105.516 46.4311 105.51 46.6178 105.5 46.8205C105.489 47.0125 105.478 47.1991 105.468 47.3805C105.457 47.5511 105.446 47.6898 105.436 47.7965L110.028 40.6125H111.756V49.1885H110.444V44.1325C110.444 43.9618 110.444 43.7378 110.444 43.4605C110.454 43.1831 110.465 42.9111 110.476 42.6445C110.486 42.3671 110.497 42.1591 110.508 42.0205L105.948 49.1885H104.204V40.6125H105.532V45.8445ZM119.557 40.6125H121.093L117.429 44.7405L121.397 49.1885H119.765L115.893 44.8365V49.1885H114.485V40.6125H115.893V44.7725L119.557 40.6125ZM128.268 40.6125V44.1805H132.924V40.6125H134.332V49.1885H132.924V45.3645H128.268V49.1885H126.86V40.6125H128.268ZM140.296 40.4685C141.341 40.4685 142.114 40.6978 142.616 41.1565C143.117 41.6151 143.368 42.3458 143.368 43.3485V49.1885H142.344L142.072 47.9725H142.008C141.762 48.2818 141.506 48.5431 141.24 48.7565C140.984 48.9591 140.685 49.1085 140.344 49.2045C140.013 49.3005 139.608 49.3485 139.128 49.3485C138.616 49.3485 138.152 49.2578 137.736 49.0765C137.33 48.8951 137.01 48.6178 136.776 48.2445C136.541 47.8605 136.424 47.3805 136.424 46.8045C136.424 45.9511 136.76 45.2951 137.432 44.8365C138.104 44.3671 139.138 44.1111 140.536 44.0685L141.992 44.0205V43.5085C141.992 42.7938 141.837 42.2978 141.528 42.0205C141.218 41.7431 140.781 41.6045 140.216 41.6045C139.768 41.6045 139.341 41.6738 138.936 41.8125C138.53 41.9405 138.152 42.0898 137.799 42.2605L137.368 41.2045C137.741 41.0018 138.184 40.8311 138.696 40.6925C139.208 40.5431 139.741 40.4685 140.296 40.4685ZM140.712 45.0445C139.645 45.0871 138.904 45.2578 138.488 45.5565C138.082 45.8551 137.88 46.2765 137.88 46.8205C137.88 47.3005 138.024 47.6525 138.312 47.8765C138.61 48.1005 138.989 48.2125 139.448 48.2125C140.173 48.2125 140.776 48.0151 141.256 47.6205C141.736 47.2151 141.976 46.5965 141.976 45.7645V44.9965L140.712 45.0445ZM156.819 42.7725C156.819 43.3058 156.659 43.7218 156.339 44.0205C156.019 44.3191 155.608 44.5218 155.107 44.6285V44.6925C155.64 44.7671 156.104 44.9591 156.499 45.2685C156.893 45.5671 157.091 46.0365 157.091 46.6765C157.091 47.0391 157.021 47.3751 156.883 47.6845C156.755 47.9938 156.552 48.2605 156.275 48.4845C155.997 48.7085 155.64 48.8845 155.203 49.0125C154.765 49.1298 154.237 49.1885 153.619 49.1885H149.923V40.6125H153.603C154.211 40.6125 154.755 40.6818 155.235 40.8205C155.725 40.9485 156.109 41.1725 156.387 41.4925C156.675 41.8018 156.819 42.2285 156.819 42.7725ZM155.635 46.6765C155.635 46.1858 155.448 45.8338 155.075 45.6205C154.701 45.4071 154.152 45.3005 153.427 45.3005H151.331V48.0525H153.459C154.163 48.0525 154.701 47.9511 155.075 47.7485C155.448 47.5351 155.635 47.1778 155.635 46.6765ZM155.395 42.9485C155.395 42.5431 155.245 42.2498 154.947 42.0685C154.659 41.8765 154.184 41.7805 153.523 41.7805H151.331V44.1325H153.266C153.96 44.1325 154.488 44.0365 154.851 43.8445C155.213 43.6525 155.395 43.3538 155.395 42.9485ZM162.389 40.4685C163.435 40.4685 164.208 40.6978 164.709 41.1565C165.211 41.6151 165.461 42.3458 165.461 43.3485V49.1885H164.437L164.165 47.9725H164.101C163.856 48.2818 163.6 48.5431 163.333 48.7565C163.077 48.9591 162.779 49.1085 162.437 49.2045C162.107 49.3005 161.701 49.3485 161.221 49.3485C160.709 49.3485 160.245 49.2578 159.829 49.0765C159.424 48.8951 159.104 48.6178 158.869 48.2445C158.635 47.8605 158.517 47.3805 158.517 46.8045C158.517 45.9511 158.853 45.2951 159.525 44.8365C160.197 44.3671 161.232 44.1111 162.629 44.0685L164.085 44.0205V43.5085C164.085 42.7938 163.931 42.2978 163.621 42.0205C163.312 41.7431 162.875 41.6045 162.309 41.6045C161.861 41.6045 161.435 41.6738 161.029 41.8125C160.624 41.9405 160.245 42.0898 159.893 42.2605L159.461 41.2045C159.835 41.0018 160.277 40.8311 160.789 40.6925C161.301 40.5431 161.835 40.4685 162.389 40.4685ZM162.805 45.0445C161.739 45.0871 160.997 45.2578 160.581 45.5565C160.176 45.8551 159.973 46.2765 159.973 46.8205C159.973 47.3005 160.117 47.6525 160.405 47.8765C160.704 48.1005 161.083 48.2125 161.541 48.2125C162.267 48.2125 162.869 48.0151 163.349 47.6205C163.829 47.2151 164.069 46.5965 164.069 45.7645V44.9965L162.805 45.0445ZM179.742 40.6125V49.1885H168.11V40.6125H169.518V48.0045H173.214V40.6125H174.622V48.0045H178.334V40.6125H179.742ZM185.797 40.4525C186.533 40.4525 187.162 40.6125 187.685 40.9325C188.218 41.2525 188.624 41.7058 188.901 42.2925C189.189 42.8685 189.333 43.5458 189.333 44.3245V45.1725H183.461C183.482 46.1431 183.728 46.8845 184.197 47.3965C184.677 47.8978 185.344 48.1485 186.197 48.1485C186.741 48.1485 187.221 48.1005 187.637 48.0045C188.064 47.8978 188.501 47.7485 188.949 47.5565V48.7885C188.512 48.9805 188.08 49.1191 187.653 49.2045C187.226 49.3005 186.72 49.3485 186.133 49.3485C185.322 49.3485 184.602 49.1831 183.973 48.8525C183.354 48.5218 182.869 48.0311 182.517 47.3805C182.176 46.7191 182.005 45.9138 182.005 44.9645C182.005 44.0258 182.16 43.2205 182.469 42.5485C182.789 41.8765 183.232 41.3591 183.797 40.9965C184.373 40.6338 185.04 40.4525 185.797 40.4525ZM185.781 41.6045C185.109 41.6045 184.576 41.8231 184.181 42.2605C183.797 42.6871 183.568 43.2845 183.493 44.0525H187.861C187.861 43.5618 187.786 43.1351 187.637 42.7725C187.488 42.4098 187.258 42.1271 186.949 41.9245C186.65 41.7111 186.261 41.6045 185.781 41.6045ZM198.46 37.0605C198.418 37.5938 198.284 38.0418 198.06 38.4045C197.847 38.7671 197.527 39.0391 197.1 39.2205C196.674 39.4018 196.119 39.4925 195.436 39.4925C194.743 39.4925 194.183 39.4018 193.756 39.2205C193.34 39.0391 193.036 38.7725 192.844 38.4205C192.652 38.0578 192.535 37.6045 192.492 37.0605H193.804C193.858 37.6365 194.007 38.0258 194.252 38.2285C194.508 38.4205 194.914 38.5165 195.468 38.5165C195.959 38.5165 196.343 38.4151 196.62 38.2125C196.908 37.9991 197.079 37.6151 197.132 37.0605H198.46ZM192.844 45.8445C192.844 45.9405 192.839 46.0791 192.828 46.2605C192.828 46.4311 192.823 46.6178 192.812 46.8205C192.802 47.0125 192.791 47.1991 192.78 47.3805C192.77 47.5511 192.759 47.6898 192.748 47.7965L197.34 40.6125H199.068V49.1885H197.756V44.1325C197.756 43.9618 197.756 43.7378 197.756 43.4605C197.767 43.1831 197.778 42.9111 197.788 42.6445C197.799 42.3671 197.81 42.1591 197.82 42.0205L193.26 49.1885H191.516V40.6125H192.844V45.8445ZM212.6 42.7725C212.6 43.3058 212.44 43.7218 212.12 44.0205C211.8 44.3191 211.389 44.5218 210.888 44.6285V44.6925C211.421 44.7671 211.885 44.9591 212.28 45.2685C212.674 45.5671 212.872 46.0365 212.872 46.6765C212.872 47.0391 212.802 47.3751 212.664 47.6845C212.536 47.9938 212.333 48.2605 212.056 48.4845C211.778 48.7085 211.421 48.8845 210.984 49.0125C210.546 49.1298 210.018 49.1885 209.4 49.1885H205.704V40.6125H209.384C209.992 40.6125 210.536 40.6818 211.016 40.8205C211.506 40.9485 211.89 41.1725 212.168 41.4925C212.456 41.8018 212.6 42.2285 212.6 42.7725ZM211.416 46.6765C211.416 46.1858 211.229 45.8338 210.856 45.6205C210.482 45.4071 209.933 45.3005 209.208 45.3005H207.112V48.0525H209.24C209.944 48.0525 210.482 47.9511 210.856 47.7485C211.229 47.5351 211.416 47.1778 211.416 46.6765ZM211.176 42.9485C211.176 42.5431 211.026 42.2498 210.728 42.0685C210.44 41.8765 209.965 41.7805 209.304 41.7805H207.112V44.1325H209.048C209.741 44.1325 210.269 44.0365 210.632 43.8445C210.994 43.6525 211.176 43.3538 211.176 42.9485ZM222.378 44.8845C222.378 45.5991 222.283 46.2338 222.091 46.7885C221.909 47.3325 221.643 47.7965 221.291 48.1805C220.949 48.5645 220.528 48.8578 220.027 49.0605C219.536 49.2525 218.987 49.3485 218.379 49.3485C217.813 49.3485 217.291 49.2525 216.811 49.0605C216.331 48.8578 215.915 48.5645 215.562 48.1805C215.211 47.7965 214.933 47.3325 214.731 46.7885C214.539 46.2338 214.443 45.5991 214.443 44.8845C214.443 43.9351 214.603 43.1351 214.923 42.4845C215.243 41.8231 215.701 41.3218 216.299 40.9805C216.896 40.6285 217.605 40.4525 218.427 40.4525C219.205 40.4525 219.888 40.6285 220.475 40.9805C221.072 41.3218 221.536 41.8231 221.867 42.4845C222.208 43.1351 222.378 43.9351 222.378 44.8845ZM215.899 44.8845C215.899 45.5565 215.984 46.1431 216.155 46.6445C216.336 47.1351 216.613 47.5138 216.987 47.7805C217.36 48.0471 217.835 48.1805 218.411 48.1805C218.987 48.1805 219.461 48.0471 219.835 47.7805C220.208 47.5138 220.48 47.1351 220.651 46.6445C220.832 46.1431 220.923 45.5565 220.923 44.8845C220.923 44.2018 220.832 43.6205 220.651 43.1405C220.469 42.6605 220.192 42.2925 219.819 42.0365C219.456 41.7698 218.981 41.6365 218.395 41.6365C217.52 41.6365 216.885 41.9245 216.491 42.5005C216.096 43.0765 215.899 43.8711 215.899 44.8845ZM231.138 49.1885H229.714V41.7805H227.186C227.079 43.1351 226.946 44.2925 226.786 45.2525C226.626 46.2018 226.423 46.9751 226.178 47.5725C225.933 48.1698 225.639 48.6071 225.298 48.8845C224.957 49.1618 224.557 49.3005 224.098 49.3005C223.959 49.3005 223.821 49.2898 223.682 49.2685C223.554 49.2578 223.447 49.2311 223.362 49.1885V48.1325C223.426 48.1538 223.495 48.1698 223.57 48.1805C223.645 48.1911 223.719 48.1965 223.794 48.1965C224.029 48.1965 224.242 48.1005 224.434 47.9085C224.626 47.7165 224.797 47.4231 224.946 47.0285C225.106 46.6338 225.25 46.1378 225.378 45.5405C225.506 44.9325 225.618 44.2178 225.714 43.3965C225.81 42.5751 225.895 41.6471 225.97 40.6125H231.138V49.1885ZM235.268 40.6125V44.1805H239.924V40.6125H241.332V49.1885H239.924V45.3645H235.268V49.1885H233.86V40.6125H235.268ZM247.36 40.4525C248.096 40.4525 248.725 40.6125 249.248 40.9325C249.781 41.2525 250.186 41.7058 250.464 42.2925C250.752 42.8685 250.896 43.5458 250.896 44.3245V45.1725H245.024C245.045 46.1431 245.29 46.8845 245.76 47.3965C246.24 47.8978 246.906 48.1485 247.76 48.1485C248.304 48.1485 248.784 48.1005 249.2 48.0045C249.626 47.8978 250.064 47.7485 250.512 47.5565V48.7885C250.074 48.9805 249.642 49.1191 249.216 49.2045C248.789 49.3005 248.282 49.3485 247.696 49.3485C246.885 49.3485 246.165 49.1831 245.536 48.8525C244.917 48.5218 244.432 48.0311 244.08 47.3805C243.738 46.7191 243.568 45.9138 243.568 44.9645C243.568 44.0258 243.722 43.2205 244.032 42.5485C244.352 41.8765 244.794 41.3591 245.36 40.9965C245.936 40.6338 246.602 40.4525 247.36 40.4525ZM247.344 41.6045C246.672 41.6045 246.138 41.8231 245.744 42.2605C245.36 42.6871 245.13 43.2845 245.056 44.0525H249.424C249.424 43.5618 249.349 43.1351 249.2 42.7725C249.05 42.4098 248.821 42.1271 248.512 41.9245C248.213 41.7111 247.824 41.6045 247.344 41.6045ZM253.391 46.0845L253.215 38.9165H254.847L254.663 46.0845H253.391ZM254.031 49.3325C253.711 49.3325 253.447 49.2338 253.239 49.0365C253.036 48.8338 252.935 48.5831 252.935 48.2845C252.935 47.9858 253.036 47.7351 253.239 47.5325C253.447 47.3245 253.711 47.2205 254.031 47.2205C254.345 47.2205 254.609 47.3245 254.823 47.5325C255.041 47.7351 255.151 47.9858 255.151 48.2845C255.151 48.5831 255.041 48.8338 254.823 49.0365C254.609 49.2338 254.345 49.3325 254.031 49.3325Z" fill="#FCFCFC"/>
</g>
<path d="M18.3218 36.8186C28.4406 36.8186 36.6435 28.6766 36.6435 18.6329C36.6435 8.58927 28.4406 0.447266 18.3218 0.447266C8.20293 0.447266 0 8.58927 0 18.6329C0 28.6766 8.20293 36.8186 18.3218 36.8186Z" fill="#C50626"/>
<path d="M83.8215 20.9203C83.8215 19.7718 82.4531 19.5821 80.793 19.4922C77.2011 19.2325 74.8367 18.0142 74.7964 14.4489C74.6556 7.50821 87.0009 7.36839 87.4033 14.0395C87.4134 14.2592 87.2222 14.4489 87.0009 14.4489H83.7511C83.57 14.4489 83.409 14.3291 83.3687 14.1593C82.9864 12.2918 78.9518 12.5515 78.8109 14.409C78.7204 15.6473 79.9479 15.907 81.4369 16.0767C84.717 16.4263 87.9366 16.8557 87.9366 20.9602C87.9366 27.7212 74.9876 28.0308 74.5751 21.2299C74.565 21.0101 74.7562 20.8204 74.9775 20.8204H78.3079C78.4789 20.8204 78.6499 20.9303 78.6801 21.09C79.1128 22.8976 83.8215 22.7678 83.8215 20.9303V20.9203Z" fill="#FCFCFC"/>
<path d="M71.446 13.1601H66.1235C65.9021 13.1601 65.721 13.3398 65.721 13.5595V15.0875C65.721 15.3072 65.9021 15.487 66.1235 15.487H70.953C71.1743 15.487 71.3554 15.6667 71.3554 15.8864V18.8225C71.3554 19.0422 71.1743 19.222 70.953 19.222H66.1235C65.9021 19.222 65.721 19.4017 65.721 19.6214V21.7186C65.721 21.9383 65.9021 22.1181 66.1235 22.1181H71.6572C71.8786 22.1181 72.0597 22.2979 72.0597 22.5176V25.4536C72.0597 25.6733 71.8786 25.8531 71.6572 25.8531H61.9178C61.6965 25.8531 61.5154 25.6733 61.5154 25.4536V9.83452C61.5154 9.61482 61.6965 9.43506 61.9178 9.43506H71.446C71.6673 9.43506 71.8484 9.61482 71.8484 9.83452V12.7906C71.8484 13.0103 71.6673 13.19 71.446 13.19V13.1601Z" fill="#FCFCFC"/>
<path d="M58.6277 25.8233H54.4623C54.3214 25.8233 54.1906 25.7434 54.1202 25.6236L51.5143 21.1895C51.4439 21.0697 51.3131 20.9898 51.1722 20.9898H49.6026C49.3813 20.9898 49.2002 21.1695 49.2002 21.3892V25.4238C49.2002 25.6436 49.0191 25.8233 48.7977 25.8233H45.3668C45.1455 25.8233 44.9644 25.6436 44.9644 25.4238V9.80474C44.9644 9.58503 45.1455 9.40527 45.3668 9.40527H52.2186C58.7183 9.42525 59.8954 17.1949 55.72 20.0011L58.9597 25.2141C59.1207 25.4738 58.9295 25.8133 58.6176 25.8133L58.6277 25.8233ZM52.2287 13.1603C51.3634 13.1403 50.4679 13.1603 49.6026 13.1603C49.3813 13.1603 49.2103 13.34 49.2103 13.5597V16.8254C49.2103 17.0451 49.3914 17.2248 49.6127 17.2248H52.2387C54.5327 17.2248 54.6434 13.1902 52.2387 13.1702L52.2287 13.1603Z" fill="#FCFCFC"/>
<path d="M89.4055 12.7608V9.80474C89.4055 9.58503 89.5866 9.40527 89.808 9.40527H101.298C101.519 9.40527 101.701 9.58503 101.701 9.80474V12.7608C101.701 12.9805 101.519 13.1603 101.298 13.1603H97.6558V25.4238C97.6558 25.6436 97.4747 25.8233 97.2534 25.8233H93.8728C93.6514 25.8233 93.4703 25.6436 93.4703 25.4238V13.1603H89.808C89.5866 13.1603 89.4055 12.9805 89.4055 12.7608Z" fill="#FCFCFC"/>
<path d="M103.3 17.6343C103.3 6.27946 120.264 6.27946 120.264 17.6343C120.264 28.9891 103.3 29.0091 103.3 17.6343ZM115.937 17.6343C115.937 11.7222 107.647 11.7222 107.647 17.6343C107.647 23.5464 115.937 23.5863 115.937 17.6343Z" fill="#FCFCFC"/>
<path d="M127.759 20.9002V25.4341C127.759 25.6538 127.578 25.8336 127.357 25.8336H123.856C123.634 25.8336 123.453 25.6538 123.453 25.4341V9.81499C123.453 9.59529 123.634 9.41553 123.856 9.41553H133.364C133.585 9.41553 133.766 9.59529 133.766 9.81499V12.771C133.766 12.9907 133.585 13.1705 133.364 13.1705H128.162C127.94 13.1705 127.759 13.3503 127.759 13.57V16.3662C127.759 16.5859 127.94 16.7657 128.162 16.7657H132.679C132.901 16.7657 133.082 16.9455 133.082 17.1652V20.1212C133.082 20.3409 132.901 20.5207 132.679 20.5207H128.162C127.94 20.5207 127.759 20.7004 127.759 20.9201V20.9002Z" fill="#FCFCFC"/>
<path d="M141.654 22.0486H146.856C147.077 22.0486 147.258 22.2284 147.258 22.4481V25.4341C147.258 25.6538 147.077 25.8336 146.856 25.8336H137.398C137.177 25.8336 136.996 25.6538 136.996 25.4341V9.81499C136.996 9.59529 137.177 9.41553 137.398 9.41553H140.849C141.07 9.41553 141.252 9.59529 141.252 9.81499V21.6592C141.252 21.8789 141.433 22.0586 141.654 22.0586V22.0486Z" fill="#FCFCFC"/>
<path d="M149.15 17.6343C149.15 6.27946 166.113 6.27946 166.113 17.6343C166.113 28.9891 149.15 29.0091 149.15 17.6343ZM161.787 17.6343C161.787 11.7222 153.496 11.7222 153.496 17.6343C153.496 23.5464 161.787 23.5863 161.787 17.6343Z" fill="#FCFCFC"/>
<path d="M167.683 12.7608V9.80474C167.683 9.58503 167.864 9.40527 168.085 9.40527H179.575C179.797 9.40527 179.978 9.58503 179.978 9.80474V12.7608C179.978 12.9805 179.797 13.1603 179.575 13.1603H175.933V25.4238C175.933 25.6436 175.752 25.8233 175.531 25.8233H172.15C171.929 25.8233 171.748 25.6436 171.748 25.4238V13.1603H168.085C167.864 13.1603 167.683 12.9805 167.683 12.7608Z" fill="#FCFCFC"/>
<path fill-rule="evenodd" clip-rule="evenodd" d="M16.0177 11.5723C16.0177 12.4012 16.3598 12.9105 17.054 13.32C17.1245 13.3699 17.1144 13.3499 17.1245 13.4897C17.1848 14.4085 16.8428 15.3572 16.068 15.7168C15.7863 15.8466 15.4442 15.8865 15.1927 15.6568C15.2329 15.547 15.2933 15.4871 15.3537 15.3772C15.5448 15.0476 15.6455 14.7281 15.6455 14.3186C15.6455 13.9192 15.6052 13.6295 15.4744 13.32C15.2229 12.7407 14.8607 12.3812 14.2469 12.1615C13.8445 12.0217 13.603 11.9817 13.12 11.9817C12.5063 11.9817 12.0737 12.0417 12.0737 12.7008C12.0737 14.3885 12.1139 16.4757 12.0737 18.1735C11.5304 18.2134 9.67906 18.1735 9.00495 18.1735C7.68691 18.1735 7.8982 18.1135 7.8982 20.7201C7.8982 20.9797 7.96863 21.1395 8.10949 21.2693C12.8484 20.5603 15.2329 21.539 19.7304 22.7973C22.7186 23.5962 26.723 24.485 29.4798 22.6575C30.4659 21.9984 31.9449 20.1308 32.78 19.2021C33.0013 18.9524 33.6553 18.3932 33.0215 18.1934C32.7498 18.1036 26.0389 18.2334 25.0126 18.1635C24.9724 16.4058 25.0126 14.4584 25.0126 12.6509C25.0126 11.9917 24.5296 11.9618 23.9058 11.9618C22.3866 11.9618 21.3905 12.8306 21.4408 14.4185C21.4609 15.0976 21.7829 15.3772 21.8936 15.6369C21.8634 15.6668 21.8936 15.6568 21.8231 15.6968C21.139 16.1462 19.8008 15.1575 19.9819 13.32C20.6158 13.0803 21.0685 12.3612 21.0786 11.6821C21.1188 10.1342 19.841 9.4751 18.3821 9.4751C17.1345 9.4751 16.0077 10.324 16.0077 11.5623" fill="#FCFCFC"/>
<path fill-rule="evenodd" clip-rule="evenodd" d="M3.75285 24.4156C3.75285 24.5654 3.95407 24.6253 4.09493 24.5255C4.44708 24.2758 5.77518 23.6765 6.19776 23.5666C6.6304 23.4568 6.98255 23.3569 7.45543 23.297C8.7936 23.1372 9.42746 23.1771 10.7254 23.3469L11.6007 23.4867C11.8824 23.5367 12.1843 23.5866 12.4559 23.6565C14.921 24.2857 17.2653 24.895 19.7504 25.4243C21.4005 25.664 23.1009 25.8139 24.7509 25.5042C25.2339 25.4343 27.719 24.9449 27.719 24.3656C27.6788 24.1759 27.3065 24.3656 27.0449 24.3956C26.8236 24.4156 26.572 24.4855 26.3406 24.5155C24.4793 24.6853 22.7588 24.6054 20.9779 24.1259C19.7806 23.7963 19.016 23.6066 17.8287 23.1971C17.1244 22.9574 15.3737 22.4081 14.6896 22.2682L13.8645 22.0785C10.8361 21.4393 7.88807 21.8887 5.13126 23.3469C4.87972 23.4867 4.60806 23.6266 4.36659 23.8063C4.18549 23.9362 3.73272 24.1459 3.75285 24.4256" fill="#FCFCFC"/>
<path fill-rule="evenodd" clip-rule="evenodd" d="M17.4162 25.7832C17.2955 25.7033 17.1747 25.6933 16.9836 25.6634C12.8483 24.5547 8.98476 23.1864 4.74892 25.0441C4.50745 25.154 4.26598 25.2639 4.02451 25.3937C3.90377 25.4536 3.39064 25.6734 3.34033 25.7932L17.1345 25.8132L17.4061 25.7832H17.4162Z" fill="#FCFCFC"/>
<defs>
<filter id="filter0_d_102_331" x="42.552" y="33.0605" width="216.599" height="23.9678" filterUnits="userSpaceOnUse" color-interpolation-filters="sRGB">
<feFlood flood-opacity="0" result="BackgroundImageFix"/>
<feColorMatrix in="SourceAlpha" type="matrix" values="0 0 0 0 0 0 0 0 0 0 0 0 0 0 0 0 0 0 127 0" result="hardAlpha"/>
<feOffset/>
<feGaussianBlur stdDeviation="2"/>
<feComposite in2="hardAlpha" operator="out"/>
<feColorMatrix type="matrix" values="0 0 0 0 0 0 0 0 0 0 0 0 0 0 0 0 0 0 0.54 0"/>
<feBlend mode="normal" in2="BackgroundImageFix" result="effect1_dropShadow_102_331"/>
<feBlend mode="normal" in="SourceGraphic" in2="effect1_dropShadow_102_331" result="shape"/>
</filter>
</defs>
</svg>
