<svg width="18" height="18" viewBox="0 0 18 18" fill="none" xmlns="http://www.w3.org/2000/svg">
<path fill-rule="evenodd" clip-rule="evenodd" d="M11.1483 12.0029V10.5712C11.4705 10.4115 12.3919 9.31483 12.4885 8.45795C12.7419 8.43861 13.14 8.20596 13.2575 7.28751C13.3205 6.79428 13.0699 6.51724 12.918 6.42991C12.918 6.42991 13.2961 5.7119 13.2961 4.84499C13.2961 3.10687 12.6138 1.6236 11.1483 1.6236C11.1483 1.6236 10.6392 0.549805 9.00044 0.549805C5.96343 0.549805 4.70482 2.49767 4.70482 4.84499C4.70482 5.6353 5.08283 6.42991 5.08283 6.42991C4.93105 6.51724 4.68047 6.79499 4.74347 7.28751C4.86088 8.20596 5.25895 8.43861 5.51239 8.45795C5.60905 9.31483 6.53046 10.4115 6.85263 10.5712V12.0029C6.13669 14.1504 0.40918 12.7188 0.40918 17.7298H17.5917C17.5917 12.7188 11.8642 14.1504 11.1483 12.0029Z" fill="#FCFCFC"/>
</svg>
